<?xml version="1.0" encoding="utf-8"?>
<!-- Generator: Adobe Illustrator 12.0.0, SVG Export Plug-In . SVG Version: 6.00 Build 51448)  -->
<!DOCTYPE svg PUBLIC "-//W3C//DTD SVG 1.1//EN" "http://www.w3.org/Graphics/SVG/1.1/DTD/svg11.dtd" [
	<!ENTITY ns_svg "http://www.w3.org/2000/svg">
	<!ENTITY ns_xlink "http://www.w3.org/1999/xlink">
]>
<svg  version="1.1"
	 id="Layer_1" xmlns:dc="http://purl.org/dc/elements/1.1/" xmlns:cc="http://creativecommons.org/ns#" xmlns:rdf="http://www.w3.org/1999/02/22-rdf-syntax-ns#" xmlns:sodipodi="http://sodipodi.sourceforge.net/DTD/sodipodi-0.dtd" xmlns:svg="http://www.w3.org/2000/svg" sodipodi:docname="notifications_grey.svg" xmlns:inkscape="http://www.inkscape.org/namespaces/inkscape" inkscape:version="0.48.1 r9760"
	 xmlns="&ns_svg;" xmlns:xlink="&ns_xlink;" width="100" height="100" viewBox="0 0 100 100"
	 overflow="visible" enable-background="new 0 0 100 100" xml:space="preserve">
<sodipodi:namedview  inkscape:window-width="765" id="namedview11" inkscape:pageopacity="0" guidetolerance="10" inkscape:zoom="1" gridtolerance="10" objecttolerance="10" borderopacity="1" bordercolor="#666666" pagecolor="#ffffff" inkscape:current-layer="Layer_1" inkscape:window-maximized="0" inkscape:window-y="0" inkscape:window-x="1680" inkscape:cy="-26.335615" inkscape:cx="50" inkscape:window-height="540" inkscape:pageshadow="2" showgrid="false">
	</sodipodi:namedview>
<path fill="#939393" d="M6.063,93.195c-0.544-1.42,2.041-13.73,5.742-27.354l6.729-24.771l38.04-0.565
	c20.922-0.309,38.861,0.258,39.865,1.262c1.647,1.647-8.637,46.752-11.846,51.943C82.593,96.948,7.311,96.452,6.063,93.195z"/>
<path fill="#939393" d="M4.089,42.385C3.945,27.543,4.602,24.241,9.111,17.097c5.094-8.068,5.405-8.216,17.405-8.216
	c11.189,0,12.587,0.516,16.577,6.119c4.255,5.978,4.823,6.132,24.398,6.709l20.039,0.589l0.648,5.63l0.647,5.632l-38.829,0.561
	l-38.83,0.563L7.71,47.07L4.254,59.456L4.089,42.385z"/>
</svg>
