<?xml version="1.0" encoding="utf-8"?>
<!-- Generator: Adobe Illustrator 12.0.0, SVG Export Plug-In . SVG Version: 6.00 Build 51448)  -->
<!DOCTYPE svg PUBLIC "-//W3C//DTD SVG 1.1//EN" "http://www.w3.org/Graphics/SVG/1.1/DTD/svg11.dtd" [
	<!ENTITY ns_svg "http://www.w3.org/2000/svg">
	<!ENTITY ns_xlink "http://www.w3.org/1999/xlink">
]>
<svg  version="1.1"
	 id="Layer_1" xmlns:dc="http://purl.org/dc/elements/1.1/" xmlns:cc="http://creativecommons.org/ns#" xmlns:rdf="http://www.w3.org/1999/02/22-rdf-syntax-ns#" xmlns:sodipodi="http://sodipodi.sourceforge.net/DTD/sodipodi-0.dtd" xmlns:svg="http://www.w3.org/2000/svg" sodipodi:docname="notifications_grey.svg" xmlns:inkscape="http://www.inkscape.org/namespaces/inkscape" inkscape:version="0.48.1 r9760"
	 xmlns="&ns_svg;" xmlns:xlink="&ns_xlink;" width="100" height="100" viewBox="0 0 100 100"
	 overflow="visible" enable-background="new 0 0 100 100" xml:space="preserve">
<sodipodi:namedview  inkscape:window-width="765" id="namedview11" inkscape:pageopacity="0" guidetolerance="10" inkscape:zoom="1" gridtolerance="10" objecttolerance="10" borderopacity="1" bordercolor="#666666" pagecolor="#ffffff" inkscape:current-layer="Layer_1" inkscape:window-maximized="0" inkscape:window-y="0" inkscape:window-x="1680" inkscape:cy="-26.335615" inkscape:cx="50" inkscape:window-height="540" inkscape:pageshadow="2" showgrid="false">
	</sodipodi:namedview>
<path fill="#939393" d="M99.581,50.878C93.51,44.787,87.44,34.695,81.368,28.604c-0.309-0.31-0.524-0.489-0.671-0.583
	c0.021-0.077,0.035-0.183,0.035-0.339c0-2.196,0-4.394,0-6.591c0-3.527,0-7.054,0-10.581h0.01V6.36H68.205v4.149h0.016
	c0,1.634,0,3.268,0,4.902C62.327,9.499,56.434,3.585,50.54-2.328c-0.306-0.307-0.652-0.428-0.984-0.428
	c-0.018-0.002-0.037-0.001-0.056-0.002c-0.019,0.001-0.038,0-0.057,0.002c-0.333,0-0.678,0.122-0.984,0.428
	C32.113,14.073,15.766,34.475-0.581,50.878c-0.906,0.907-0.245,2.51,1.041,2.51c3.355,0,6.712,0,10.069,0
	c0,12.354,0,36.707,0,45.061c0,0.012,0.003,0.021,0.003,0.033v1.617h29.322V98.51c0.001-0.021,0.006-0.041,0.006-0.062
	c0-7.242,0-26.485,0-33.729c3.106,0,16.174,0,19.279,0c0,7.243,0,26.486,0,33.729c0,0.022,0.006,0.044,0.007,0.066v1.584h29.307
	v-1.471c0.008-0.06,0.019-0.118,0.019-0.18c0-8.354,0-32.707,0-45.061c3.356,0,6.713,0,10.068,0
	C99.825,53.388,100.487,51.785,99.581,50.878z"/>
</svg>
