<?xml version="1.0" encoding="utf-8"?>
<!-- Generator: Adobe Illustrator 12.0.0, SVG Export Plug-In . SVG Version: 6.00 Build 51448)  -->
<!DOCTYPE svg PUBLIC "-//W3C//DTD SVG 1.1//EN" "http://www.w3.org/Graphics/SVG/1.1/DTD/svg11.dtd" [
	<!ENTITY ns_svg "http://www.w3.org/2000/svg">
	<!ENTITY ns_xlink "http://www.w3.org/1999/xlink">
]>
<svg  version="1.1"
	 id="Layer_1" xmlns:dc="http://purl.org/dc/elements/1.1/" xmlns:cc="http://creativecommons.org/ns#" xmlns:rdf="http://www.w3.org/1999/02/22-rdf-syntax-ns#" xmlns:sodipodi="http://sodipodi.sourceforge.net/DTD/sodipodi-0.dtd" xmlns:svg="http://www.w3.org/2000/svg" sodipodi:docname="notifications_grey.svg" xmlns:inkscape="http://www.inkscape.org/namespaces/inkscape" inkscape:version="0.48.1 r9760"
	 xmlns="&ns_svg;" xmlns:xlink="&ns_xlink;" width="100" height="100" viewBox="0 0 100 100"
	 overflow="visible" enable-background="new 0 0 100 100" xml:space="preserve">
<sodipodi:namedview  inkscape:window-width="765" id="namedview11" inkscape:pageopacity="0" guidetolerance="10" inkscape:zoom="1" gridtolerance="10" objecttolerance="10" borderopacity="1" bordercolor="#666666" pagecolor="#ffffff" inkscape:current-layer="Layer_1" inkscape:window-maximized="0" inkscape:window-y="0" inkscape:window-x="1680" inkscape:cy="-26.335615" inkscape:cx="50" inkscape:window-height="540" inkscape:pageshadow="2" showgrid="false">
	</sodipodi:namedview>
<path id="path2989" inkscape:connector-curvature="0" fill="#939393" d="M-1.215,88.872c-0.596-1.554-0.813-15.777-0.483-31.61
	l0.6-34.787l20.314-1.07c19.603-1.033,20.411-1.276,23.125-6.956c2.717-5.687,7.386-5.886,23.702-5.886
	c16.316,0,16.984,0.2,19.705,5.886c2.062,4.312,4.812,6.172,10.283,6.956l7.469,1.07v37.036v31.035l-53.816,0.575
	C10.008,91.578-0.352,91.121-1.215,88.872z M23.06,57.184c-0.957-34.804-4.51-35.536-5.512-1.035
	c-0.655,22.576,0.362,29.088,3.977,25.474C22.772,80.375,23.416,70.118,23.06,57.184z M75.721,79.68
	c21.789-10.341,14.465-48.546-9.678-48.546c-10.719,0-22.586,5.706-25.562,15.639c-3.197,10.668,1.661,27.956,11.546,32.829
	C60.611,83.834,66.943,83.845,75.721,79.68z M39.684,34.061c2.207-3.569-2.755-7.662-5.707-4.709
	c-2.47,2.47-0.924,7.036,2.382,7.036C37.396,36.388,38.893,35.34,39.684,34.061z M75.675,18.194c0-2.442-16.728-4.123-21.462-2.307
	c-1.73,0.664-2.512,2.227-1.74,3.475C54.218,22.188,75.675,21.126,75.675,18.194z"/>
</svg>
